{"title":"Star.Trek.Into.Darkness.2013.CAM.NEW.SOURCE.XViD-FANTA","uid":8506353,"size":1585967740,"categoryP":"video","categoryS":"movies","magnet":"?xt=urn:btih:e2d144b30b2fc7ebef01f32ef84b4439dc8535b0&amp;dn=Star.Trek.Into.Darkness.2013.CAM.NEW.SOURCE.XViD-FANTA&amp;tr=udp%3A%2F%2Ftracker.openbittorrent.com%3A80&amp;tr=udp%3A%2F%2Fopen.demonii.com%3A1337&amp;tr=udp%3A%2F%2Ftracker.coppersurfer.tk%3A6969&amp;tr=udp%3A%2F%2Fexodus.desync.com%3A6969","seeders":8,"leechers":0,"uploader":"xxxlavalxxx","files":4,"time":1369435520,"description":"\n\n\n &lt;a href=&quot;\nhttp://www.imdb.com/title/tt1408101/&quot; rel=&quot;nofollow&quot; target=&quot;_NEW&quot;&gt;\nhttp://www.imdb.com/title/tt1408101/&lt;/a&gt;\n\n\nAfter the crew of the Enterprise find an unstoppable force of terror from within their own organization, Captain Kirk leads a manhunt to a war-zone world to capture a one man weapon of mass destruction. \n\n\n\nDirector:\n J.J. Abrams \n\nWriters:\n Roberto Orci, Alex Kurtzman\n\nStars:\n Chris Pine, Zachary Quinto, Zoe Saldana\n\nGenres:\n  Action |  Adventure |  Sci-Fi \n\nCountry:\n USA \n\nLanguage:\n English | Klingon \n\n\n\n\n\n\n\nFormat                                   : AVI\nFormat/Info                              : Audio Video Interleave\nFormat profile                           : OpenDML\nFormat settings                          : rec\nFile size                                : 1.42 GiB\nDuration                                 : 2h 2mn\nOverall bit rate                         : 1 659 Kbps\nWriting application                      : AVI-Mux GUI 1.17.8.3, Feb 16 201019:42:50\n\nVideo\nID                                       : 0\nFormat                                   : MPEG-4 Visual\nFormat profile                           : Advanced Simple@L5\nFormat settings, BVOP                    : 4\nFormat settings, QPel                    : No\nFormat settings, GMC                     : No warppoints\nFormat settings, Matrix                  : Default (MPEG)\nCodec ID                                 : XVID\nCodec ID/Hint                            : XviD\nDuration                                 : 2h 2mn\nBit rate                                 : 1 462 Kbps\nWidth                                    : 720 pixels\nHeight                                   : 320 pixels\nDisplay aspect ratio                     : 2.25:1\nFrame rate                               : 25.000 fps\nColor space                              : YUV\nChroma subsampling                       : 4:2:0\nBit depth                                : 8 bits\nScan type                                : Progressive\nCompression mode                         : Lossy\nBits/(Pixel*Frame)                       : 0.254\nStream size                              : 1.25 GiB (88%)\nWriting library                          : XviD 1.2.1 (UTC 2008-12-04)\n\nAudio\nID                                       : 1\nFormat                                   : AC-3\nFormat/Info                              : Audio Coding 3\nMode extension                           : CM (complete main)\nFormat settings, Endianness              : Big\nCodec ID                                 : 2000\nDuration                                 : 2h 2mn\nBit rate mode                            : Constant\nBit rate                                 : 192 Kbps\nChannel(s)                               : 2 channels\nChannel positions                        : Front: L R\nSampling rate                            : 48.0 KHz\nBit depth                                : 16 bits\nCompression mode                         : Lossy\nStream size                              : 168 MiB (12%)\nAlignment                                : Aligned on interleaves\nInterleave, duration                     : 64 ms (1.60 video frames)\nInterleave, preload duration             : 192 ms\nTitle                                    : NEW AUDiO -JUSTiCE\n\n\ninfo\n\n\n\n   &lt;a href=&quot;\thttp://addpix.net/viewer.php?file=21143688663573305302.png&quot; rel=&quot;nofollow&quot; target=&quot;_NEW&quot;&gt;\thttp://addpix.net/viewer.php?file=21143688663573305302.png&lt;/a&gt;\n\n\n\nscreens\n\n\n    &lt;a href=&quot;\thttp://addpix.net/viewer.php?file=52848687162113610045.jpg&quot; rel=&quot;nofollow&quot; target=&quot;_NEW&quot;&gt;\thttp://addpix.net/viewer.php?file=52848687162113610045.jpg&lt;/a&gt;\n    &lt;a href=&quot;\thttp://addpix.net/viewer.php?file=90673740974806015788.jpg&quot; rel=&quot;nofollow&quot; target=&quot;_NEW&quot;&gt;\thttp://addpix.net/viewer.php?file=90673740974806015788.jpg&lt;/a&gt;\n    &lt;a href=&quot;\thttp://addpix.net/viewer.php?file=55158140490542571830.jpg&quot; rel=&quot;nofollow&quot; target=&quot;_NEW&quot;&gt;\thttp://addpix.net/viewer.php?file=55158140490542571830.jpg&lt;/a&gt;\n    &lt;a href=&quot;\thttp://addpix.net/viewer.php?file=47434443798913208138.jpg&quot; rel=&quot;nofollow&quot; target=&quot;_NEW&quot;&gt;\thttp://addpix.net/viewer.php?file=47434443798913208138.jpg&lt;/a&gt;\n    &lt;a href=&quot;\thttp://addpix.net/viewer.php?file=43147590260699957868.jpg&quot; rel=&quot;nofollow&quot; target=&quot;_NEW&quot;&gt;\thttp://addpix.net/viewer.php?file=43147590260699957868.jpg&lt;/a&gt;","torrent":{"xt":"urn:btih:e2d144b30b2fc7ebef01f32ef84b4439dc8535b0","amp;dn":"Star.Trek.Into.Darkness.2013.CAM.NEW.SOURCE.XViD-FANTA","amp;tr":["udp%3A%2F%2Ftracker.openbittorrent.com%3A80","udp%3A%2F%2Fopen.demonii.com%3A1337","udp%3A%2F%2Ftracker.coppersurfer.tk%3A6969","udp%3A%2F%2Fexodus.desync.com%3A6969"],"infoHash":"e2d144b30b2fc7ebef01f32ef84b4439dc8535b0","infoHashBuffer":{"type":"Buffer","data":[226,209,68,179,11,47,199,235,239,1,243,46,248,75,68,57,220,133,53,176]},"announce":[],"urlList":[]}}